<svg width="30" height="30" viewBox="0 0 30 30" fill="none" xmlns="http://www.w3.org/2000/svg">
<g id="Group 14">
<rect id="Rectangle 44" width="30" height="30" rx="4" fill="#D9D9D9"/>
<path id="Vector" d="M15.9252 6C16.9377 6.0027 17.4515 6.0081 17.8952 6.0207L18.0698 6.027C18.2714 6.0342 18.4703 6.0432 18.7106 6.054C19.6681 6.099 20.3215 6.25019 20.8948 6.47249C21.4887 6.70108 21.9891 7.01068 22.4895 7.51016C22.9471 7.96006 23.3012 8.50427 23.5271 9.10493C23.7494 9.67821 23.9006 10.3316 23.9456 11.2901C23.9564 11.5295 23.9654 11.7284 23.9726 11.9309L23.978 12.1055C23.9915 12.5482 23.9969 13.0621 23.9987 14.0746L23.9996 14.746V15.925C24.0018 16.5814 23.9949 17.2379 23.9789 17.8941L23.9735 18.0687C23.9663 18.2712 23.9573 18.4701 23.9465 18.7095C23.9015 19.668 23.7485 20.3205 23.5271 20.8947C23.3018 21.4956 22.9477 22.04 22.4895 22.4894C22.0395 22.9469 21.4953 23.301 20.8948 23.5271C20.3215 23.7494 19.6681 23.9006 18.7106 23.9456C18.497 23.9556 18.2834 23.9646 18.0698 23.9726L17.8952 23.978C17.4515 23.9906 16.9377 23.9969 15.9252 23.9987L15.2538 23.9996H14.0758C13.4191 24.0018 12.7623 23.9949 12.1058 23.9789L11.9312 23.9735C11.7176 23.9654 11.504 23.9561 11.2904 23.9456C10.3329 23.9006 9.67953 23.7494 9.10536 23.5271C8.50479 23.3015 7.96081 22.9474 7.51154 22.4894C7.05351 22.0397 6.69909 21.4954 6.473 20.8947C6.25071 20.3214 6.09951 19.668 6.05452 18.7095C6.04449 18.496 6.03549 18.2824 6.02752 18.0687L6.02302 17.8941C6.00643 17.2379 5.99893 16.5814 6.00052 15.925V14.0746C5.99801 13.4182 6.00461 12.7617 6.02032 12.1055L6.02662 11.9309C6.03382 11.7284 6.04282 11.5295 6.05362 11.2901C6.09861 10.3316 6.24981 9.67911 6.4721 9.10493C6.69809 8.50366 7.05321 7.95928 7.51244 7.51016C7.9616 7.0525 8.50522 6.69837 9.10536 6.47249C9.67953 6.25019 10.332 6.099 11.2904 6.054C11.5298 6.0432 11.7296 6.0342 11.9312 6.027L12.1058 6.0216C12.762 6.00561 13.4185 5.99871 14.0749 6.0009L15.9252 6ZM15.0001 10.4999C13.8066 10.4999 12.6621 10.974 11.8182 11.8179C10.9744 12.6618 10.5003 13.8063 10.5003 14.9998C10.5003 16.1932 10.9744 17.3378 11.8182 18.1817C12.6621 19.0256 13.8066 19.4997 15.0001 19.4997C16.1935 19.4997 17.338 19.0256 18.1819 18.1817C19.0257 17.3378 19.4998 16.1932 19.4998 14.9998C19.4998 13.8063 19.0257 12.6618 18.1819 11.8179C17.338 10.974 16.1935 10.4999 15.0001 10.4999ZM15.0001 12.2999C15.3546 12.2998 15.7057 12.3696 16.0333 12.5052C16.3609 12.6408 16.6585 12.8397 16.9093 13.0903C17.16 13.341 17.3589 13.6386 17.4947 13.9662C17.6304 14.2937 17.7003 14.6448 17.7004 14.9993C17.7004 15.3539 17.6307 15.705 17.495 16.0326C17.3594 16.3602 17.1606 16.6579 16.9099 16.9086C16.6593 17.1594 16.3617 17.3583 16.0341 17.494C15.7066 17.6298 15.3555 17.6997 15.001 17.6997C14.2849 17.6997 13.5982 17.4153 13.0919 16.9089C12.5855 16.4026 12.3011 15.7159 12.3011 14.9998C12.3011 14.2837 12.5855 13.597 13.0919 13.0906C13.5982 12.5843 14.2849 12.2999 15.001 12.2999M19.7257 9.14993C19.4274 9.14993 19.1412 9.26845 18.9303 9.47942C18.7193 9.6904 18.6008 9.97654 18.6008 10.2749C18.6008 10.5733 18.7193 10.8594 18.9303 11.0704C19.1412 11.2814 19.4274 11.3999 19.7257 11.3999C20.0241 11.3999 20.3102 11.2814 20.5212 11.0704C20.7321 10.8594 20.8507 10.5733 20.8507 10.2749C20.8507 9.97654 20.7321 9.6904 20.5212 9.47942C20.3102 9.26845 20.0241 9.14993 19.7257 9.14993Z" fill="#353644"/>
</g>
</svg>
