<svg width="20" height="20" viewBox="0 0 20 20" fill="none" xmlns="http://www.w3.org/2000/svg">
<g id="mingcute:whatsapp-fill" clip-path="url(#clip0_631_38)">
<g id="Group">
<path id="Vector" fill-rule="evenodd" clip-rule="evenodd" d="M9.99984 1.66669C5.39734 1.66669 1.6665 5.39752 1.6665 10C1.6665 11.575 2.104 13.05 2.86484 14.3067L2.1215 16.8334C2.07882 16.9784 2.07602 17.1323 2.11337 17.2788C2.15073 17.4254 2.22688 17.5591 2.3338 17.6661C2.44073 17.773 2.57449 17.8491 2.72102 17.8865C2.86755 17.9238 3.02144 17.921 3.1665 17.8784L5.69317 17.135C6.99207 17.9209 8.48169 18.3354 9.99984 18.3334C14.6023 18.3334 18.3332 14.6025 18.3332 10C18.3332 5.39752 14.6023 1.66669 9.99984 1.66669ZM8.11484 11.8859C9.80067 13.5709 11.4098 13.7934 11.9782 13.8142C12.8423 13.8459 13.684 13.1859 14.0115 12.42C14.0528 12.3248 14.0679 12.2201 14.055 12.1171C14.0421 12.014 14.0017 11.9163 13.9382 11.8342C13.4815 11.2509 12.864 10.8317 12.2607 10.415C12.1347 10.3279 11.9799 10.293 11.8287 10.3175C11.6776 10.3421 11.5418 10.4242 11.4498 10.5467L10.9498 11.3092C10.9236 11.3502 10.8826 11.3796 10.8353 11.3913C10.7881 11.4031 10.7381 11.3964 10.6957 11.3725C10.3565 11.1784 9.86234 10.8484 9.50734 10.4934C9.15234 10.1384 8.84234 9.66669 8.66817 9.34919C8.64658 9.30885 8.64033 9.26205 8.6506 9.21746C8.66087 9.17288 8.68694 9.13352 8.724 9.10669L9.494 8.53502C9.60389 8.43947 9.67481 8.30685 9.69325 8.16241C9.71169 8.01796 9.67636 7.87178 9.594 7.75169C9.22067 7.20502 8.78567 6.51002 8.15484 6.04919C8.07343 5.99019 7.97806 5.9534 7.87811 5.94245C7.77817 5.93149 7.6771 5.94673 7.58484 5.98669C6.81817 6.31502 6.15484 7.15669 6.1865 8.02252C6.20734 8.59085 6.42984 10.2 8.11484 11.8859Z" fill="#353644"/>
</g>
</g>
<defs>
<clipPath id="clip0_631_38">
<rect width="20" height="20" fill="white"/>
</clipPath>
</defs>
</svg>
