<svg width="20" height="20" viewBox="0 0 20 20" fill="none" xmlns="http://www.w3.org/2000/svg">
<g id="Group">
<path id="Vector" fill-rule="evenodd" clip-rule="evenodd" d="M9.99984 3.33331C10.7123 3.33331 11.4432 3.35165 12.1515 3.38165L12.9882 3.42165L13.789 3.46915L14.539 3.51998L15.224 3.57331C15.9674 3.63021 16.6669 3.94744 17.1994 4.46918C17.732 4.99092 18.0635 5.68376 18.1357 6.42581L18.169 6.77998L18.2315 7.53831C18.2898 8.32415 18.3332 9.18081 18.3332 9.99998C18.3332 10.8191 18.2898 11.6758 18.2315 12.4616L18.169 13.22C18.1582 13.3416 18.1473 13.4591 18.1357 13.5741C18.0635 14.3163 17.7319 15.0093 17.1991 15.531C16.6664 16.0528 15.9667 16.3699 15.2232 16.4266L14.5398 16.4791L13.7898 16.5308L12.9882 16.5783L12.1515 16.6183C11.4347 16.6495 10.7173 16.6656 9.99984 16.6666C9.28236 16.6656 8.56498 16.6495 7.84817 16.6183L7.0115 16.5783L6.21067 16.5308L5.46067 16.4791L4.77567 16.4266C4.0323 16.3697 3.3328 16.0525 2.80023 15.5308C2.26767 15.009 1.93615 14.3162 1.864 13.5741L1.83067 13.22L1.76817 12.4616C1.70445 11.6426 1.67054 10.8215 1.6665 9.99998C1.6665 9.18081 1.70984 8.32415 1.76817 7.53831L1.83067 6.77998C1.8415 6.65831 1.85234 6.54081 1.864 6.42581C1.93612 5.68389 2.26752 4.99116 2.79991 4.46943C3.33231 3.94771 4.03161 3.6304 4.77484 3.57331L5.459 3.51998L6.209 3.46915L7.01067 3.42165L7.84734 3.38165C8.56442 3.35051 9.28208 3.33439 9.99984 3.33331ZM8.33317 7.97915V12.0208C8.33317 12.4058 8.74984 12.6458 9.08317 12.4541L12.5832 10.4333C12.6593 10.3895 12.7226 10.3263 12.7666 10.2503C12.8106 10.1742 12.8337 10.0879 12.8337 9.99998C12.8337 9.9121 12.8106 9.82578 12.7666 9.7497C12.7226 9.67363 12.6593 9.61049 12.5832 9.56665L9.08317 7.54665C9.00714 7.50275 8.92089 7.47965 8.83309 7.47966C8.7453 7.47967 8.65905 7.5028 8.58303 7.54673C8.50701 7.59065 8.4439 7.65381 8.40004 7.72987C8.35618 7.80592 8.33311 7.89218 8.33317 7.97998" fill="#353644"/>
</g>
</svg>
